<svg width="64" height="64" viewBox="0 0 64 64" fill="none" xmlns="http://www.w3.org/2000/svg" xmlns:xlink="http://www.w3.org/1999/xlink">
<path d="M17.144,6.435C17.48,6.034 17.646,5.517 17.605,4.995C17.564,4.473 17.32,3.988 16.926,3.643C16.531,3.299 16.018,3.123 15.495,3.154C14.973,3.184 14.483,3.418 14.131,3.806L10.685,7.752C8.732,9.991 7.627,12.845 7.565,15.816L7.413,23.067C7.402,23.597 7.603,24.11 7.97,24.493C8.337,24.876 8.842,25.097 9.372,25.108C9.902,25.119 10.415,24.919 10.798,24.552C11.181,24.184 11.402,23.68 11.413,23.15L11.563,15.902C11.605,13.869 12.361,11.916 13.699,10.384L17.144,6.435Z" fill="#FFFFFF"/>
<path d="M16.632,20.533C16.811,17.68 18.071,15.003 20.154,13.046C22.238,11.089 24.989,9.999 27.848,10L29.333,10L29.333,8C29.333,7.292 29.614,6.614 30.114,6.114C30.614,5.614 31.293,5.333 32,5.333C32.707,5.333 33.386,5.614 33.886,6.114C34.386,6.614 34.667,7.292 34.667,8L34.667,10L36.152,10C39.011,9.999 41.762,11.089 43.846,13.046C45.929,15.003 47.189,17.68 47.368,20.533L47.957,29.957C48.182,33.55 49.388,37.013 51.445,39.968C51.87,40.579 52.13,41.289 52.199,42.03C52.268,42.771 52.144,43.517 51.84,44.196C51.535,44.875 51.06,45.463 50.46,45.904C49.861,46.345 49.158,46.623 48.419,46.712L39.333,47.8L39.333,50.666C39.333,52.611 38.561,54.477 37.185,55.852C35.81,57.227 33.945,58 32,58C30.055,58 28.19,57.227 26.814,55.852C25.439,54.477 24.667,52.611 24.667,50.666L24.667,47.8L15.581,46.709C14.843,46.62 14.14,46.342 13.541,45.901C12.942,45.461 12.467,44.872 12.162,44.194C11.858,43.515 11.734,42.77 11.802,42.029C11.871,41.289 12.13,40.578 12.555,39.968C14.611,37.013 15.818,33.55 16.043,29.957L16.632,20.536L16.632,20.533ZM28.667,50.666C28.667,51.55 29.018,52.398 29.643,53.023C30.268,53.648 31.116,54 32,54C32.884,54 33.732,53.648 34.357,53.023C34.982,52.398 35.333,51.55 35.333,50.666L35.333,48.666L28.667,48.666L28.667,50.666Z" clip-rule="evenodd" fill-rule="evenodd" fill="#FFFFFF"/>
<path d="M47.048,3.613C46.649,3.962 46.404,4.455 46.368,4.984C46.332,5.513 46.507,6.035 46.856,6.434L50.301,10.381C51.638,11.914 52.393,13.868 52.435,15.901L52.587,23.146C52.592,23.409 52.649,23.668 52.755,23.909C52.86,24.149 53.012,24.367 53.202,24.548C53.391,24.73 53.615,24.873 53.86,24.969C54.104,25.064 54.365,25.11 54.628,25.105C54.891,25.1 55.15,25.042 55.39,24.937C55.631,24.831 55.848,24.68 56.03,24.49C56.212,24.3 56.355,24.077 56.45,23.832C56.546,23.587 56.592,23.326 56.587,23.064L56.435,15.816C56.373,12.845 55.268,9.99 53.315,7.752L49.869,3.805C49.521,3.405 49.028,3.161 48.498,3.125C47.969,3.089 47.448,3.264 47.048,3.613Z" fill="#FFFFFF"/>
</svg>
