<svg xmlns="http://www.w3.org/2000/svg" width="24" height="24" viewBox="0 0 24 24" fill="#064E3B">
  <path d="M22.23 0H1.77C.79 0 0 .775 0 1.731v20.538C0 23.225.79 24 1.77 24h20.46C23.21 24 24 23.225 24 22.269V1.731C24 .775 23.21 0 22.23 0zM7.06 20.452H3.56V9.047h3.5v11.405zM5.31 7.7c-1.11 0-1.98-.878-1.98-1.96 0-1.081.87-1.96 1.98-1.96 1.1 0 1.98.879 1.98 1.96 0 1.082-.87 1.96-1.98 1.96zm14.42 12.752h-3.5v-5.675c0-1.35-.03-3.082-1.88-3.082-1.88 0-2.17 1.468-2.17 2.98v5.777h-3.5V9.047h3.36v1.554h.05c.47-.884 1.61-1.81 3.32-1.81 3.55 0 4.2 2.339 4.2 5.379v6.282z"/>
</svg>
