<svg width="34" height="46" viewBox="0 0 34 46" fill="none" xmlns="http://www.w3.org/2000/svg" xmlns:xlink="http://www.w3.org/1999/xlink">
<path d="M32.461,21.157C32.404,20.917 32.289,20.694 32.125,20.509C31.961,20.324 31.755,20.182 31.523,20.096L20.721,16.044L23.47,2.294C23.532,1.975 23.489,1.644 23.347,1.351C23.204,1.059 22.97,0.82 22.681,0.672C22.391,0.524 22.061,0.474 21.74,0.53C21.419,0.586 21.126,0.744 20.903,0.982L-0.097,23.482C-0.267,23.662 -0.391,23.881 -0.456,24.12C-0.521,24.359 -0.526,24.61 -0.47,24.852C-0.415,25.093 -0.3,25.317 -0.137,25.503C0.027,25.69 0.234,25.833 0.466,25.919L11.271,29.971L8.53,43.706C8.468,44.025 8.511,44.356 8.654,44.649C8.796,44.942 9.03,45.18 9.319,45.328C9.609,45.476 9.939,45.526 10.26,45.47C10.581,45.414 10.874,45.256 11.097,45.018L32.097,22.518C32.264,22.338 32.385,22.12 32.449,21.883C32.512,21.646 32.516,21.396 32.461,21.157ZM12.507,39.125L14.47,29.304C14.54,28.956 14.485,28.594 14.313,28.282C14.141,27.971 13.865,27.731 13.533,27.605L3.625,23.883L19.491,6.884L17.53,16.706C17.46,17.054 17.515,17.416 17.687,17.727C17.859,18.038 18.135,18.278 18.468,18.404L28.368,22.117L12.507,39.125Z" fill="#064E3B"/>
</svg>
