<svg width="138" height="138" viewBox="0 0 138 138" fill="none" xmlns="http://www.w3.org/2000/svg" xmlns:xlink="http://www.w3.org/1999/xlink">
<path d="M60.865,76.785L65.83,73.916L59.391,68.499L60.865,76.785Z" fill="#C90000"/>
<path d="M122.21,68.945C122.21,67.724 121.61,66.65 120.696,65.977L120.716,65.943L107.849,58.515L115.255,45.686L115.23,45.671C115.464,45.143 115.57,44.566 115.54,43.989C115.509,43.411 115.343,42.849 115.055,42.348C114.765,41.847 114.36,41.422 113.875,41.107C113.389,40.792 112.836,40.596 112.26,40.535L112.26,40.499L97.401,40.499L97.401,25.682L97.37,25.682C97.308,25.107 97.112,24.555 96.797,24.07C96.482,23.585 96.057,23.182 95.557,22.892C95.055,22.603 94.492,22.436 93.913,22.406C93.335,22.376 92.758,22.483 92.228,22.719L92.21,22.687L79.127,30.242L71.882,17.692L71.855,17.707C71.514,17.24 71.068,16.86 70.553,16.598C70.038,16.336 69.468,16.198 68.89,16.197C67.669,16.197 66.594,16.798 65.921,17.711L65.888,17.692L58.523,30.449L45.841,23.126L45.826,23.152C45.297,22.919 44.721,22.812 44.143,22.843C43.566,22.873 43.004,23.039 42.503,23.328C42.002,23.618 41.576,24.022 41.261,24.508C40.946,24.993 40.749,25.546 40.688,26.122L40.651,26.122L40.651,40.852L26.006,40.852L26.006,40.881C25.431,40.943 24.879,41.139 24.394,41.455C23.91,41.77 23.506,42.194 23.216,42.695C22.928,43.196 22.761,43.759 22.731,44.337C22.701,44.915 22.808,45.491 23.042,46.02L23.01,46.04L30.25,58.58L17.286,66.065L17.301,66.091C16.834,66.432 16.454,66.878 16.192,67.394C15.93,67.909 15.793,68.479 15.792,69.057C15.792,70.278 16.392,71.353 17.305,72.025L17.286,72.058L30.153,79.487L22.747,92.315L22.772,92.329C22.538,92.858 22.432,93.434 22.462,94.011C22.492,94.589 22.659,95.151 22.947,95.652C23.237,96.153 23.642,96.578 24.127,96.893C24.613,97.208 25.166,97.404 25.741,97.465L25.741,97.503L40.6,97.503L40.6,112.318L40.63,112.318C40.757,113.444 41.388,114.499 42.444,115.109C42.946,115.398 43.509,115.564 44.087,115.594C44.666,115.624 45.243,115.517 45.772,115.281L45.79,115.313L58.874,107.759L66.119,120.309L66.145,120.293C66.486,120.76 66.932,121.14 67.448,121.402C67.963,121.665 68.533,121.802 69.111,121.803C70.332,121.803 71.407,121.203 72.079,120.291L72.111,120.309L79.476,107.552L92.159,114.874L92.175,114.848C92.703,115.082 93.28,115.188 93.857,115.157C94.434,115.127 94.996,114.961 95.498,114.673C95.999,114.383 96.424,113.978 96.74,113.493C97.055,113.007 97.251,112.454 97.312,111.878L97.35,111.878L97.35,97.149L111.996,97.149L111.996,97.12C112.57,97.059 113.123,96.862 113.607,96.547C114.092,96.232 114.496,95.807 114.786,95.307C115.074,94.805 115.24,94.243 115.271,93.665C115.301,93.087 115.194,92.51 114.96,91.981L114.992,91.963L107.752,79.423L120.716,71.938L120.701,71.912C121.167,71.571 121.547,71.124 121.81,70.609C122.072,70.093 122.209,69.523 122.21,68.945ZM51.801,89.972C48.724,91.749 45.934,91.992 43.561,91.355L43.894,87.633C45.691,88.153 48.013,88.15 50.207,86.882C52.094,85.793 52.495,84.446 51.959,83.518C50.359,80.749 42.31,87.975 38.85,81.985C37.321,79.335 38.344,75.815 42.093,73.651C44.623,72.189 47.165,71.742 49.581,72.287L49.154,75.907C47.177,75.46 45.141,75.902 43.519,76.837C42.086,77.665 41.632,78.754 42.184,79.71C43.632,82.216 51.796,75.245 55.226,81.186C56.909,84.096 56.077,87.506 51.801,89.972ZM71.043,78.482L68.484,76.364L61.657,80.305L62.211,83.581L58.367,85.799L55.311,66.337L59.56,63.884L74.886,76.264L71.043,78.482ZM76.222,75.493L67.03,59.571L70.444,57.599L77.914,70.536L84.645,66.65L86.369,69.635L76.222,75.493ZM88.658,68.313L79.466,52.392L90.733,45.885L92.455,48.869L84.579,53.417L86.508,56.76L94.217,52.308L95.939,55.291L88.231,59.742L90.325,63.371L98.202,58.823L99.926,61.806L88.658,68.313Z" fill="#C90000"/>
</svg>
