<svg width="24" height="24" viewBox="0 0 24 24" fill="none" xmlns="http://www.w3.org/2000/svg" xmlns:xlink="http://www.w3.org/1999/xlink">
<path d="M12.333,9L12.333,0.667C12.333,0.225 12.158,-0.199 11.845,-0.512C11.533,-0.824 11.109,-1 10.667,-1C10.225,-1 9.801,-0.824 9.488,-0.512C9.176,-0.199 9,0.225 9,0.667L9,9L0.667,9C0.225,9 -0.199,9.176 -0.512,9.488C-0.824,9.801 -1,10.225 -1,10.667C-1,11.109 -0.824,11.533 -0.512,11.845C-0.199,12.158 0.225,12.333 0.667,12.333L9,12.333L9,20.667C9,21.109 9.176,21.533 9.488,21.845C9.801,22.158 10.225,22.333 10.667,22.333C11.109,22.333 11.533,22.158 11.845,21.845C12.158,21.533 12.333,21.109 12.333,20.667L12.333,12.333L20.667,12.333C21.109,12.333 21.533,12.158 21.845,11.845C22.158,11.533 22.333,11.109 22.333,10.667C22.333,10.225 22.158,9.801 21.845,9.488C21.533,9.176 21.109,9 20.667,9L12.333,9Z" fill="#064500"/>
</svg>
