<svg width="52" height="54" viewBox="0 0 52 54" fill="none" xmlns="http://www.w3.org/2000/svg" xmlns:xlink="http://www.w3.org/1999/xlink">
<path d="M36,22C36,22.531 35.789,23.039 35.414,23.414C35.039,23.789 34.53,24 34,24L18,24C17.47,24 16.961,23.789 16.586,23.414C16.211,23.039 16,22.531 16,22C16,21.47 16.211,20.961 16.586,20.586C16.961,20.211 17.47,20 18,20L34,20C34.53,20 35.039,20.211 35.414,20.586C35.789,20.961 36,21.47 36,22ZM34,28L18,28C17.47,28 16.961,28.211 16.586,28.586C16.211,28.961 16,29.47 16,30C16,30.531 16.211,31.039 16.586,31.414C16.961,31.789 17.47,32 18,32L34,32C34.53,32 35.039,31.789 35.414,31.414C35.789,31.039 36,30.531 36,30C36,29.47 35.789,28.961 35.414,28.586C35.039,28.211 34.53,28 34,28ZM52,26C52.001,30.489 50.84,34.902 48.629,38.809C46.419,42.715 43.235,45.984 39.387,48.295C35.539,50.606 31.158,51.881 26.67,51.997C22.183,52.113 17.742,51.065 13.78,48.955L5.267,51.793C4.563,52.028 3.806,52.062 3.083,51.891C2.36,51.72 1.699,51.352 1.174,50.827C0.648,50.301 0.28,49.64 0.109,48.917C-0.062,48.194 -0.028,47.437 0.208,46.733L3.045,38.22C1.19,34.733 0.154,30.87 0.016,26.923C-0.123,22.976 0.64,19.049 2.246,15.44C3.851,11.832 6.258,8.637 9.283,6.098C12.308,3.558 15.871,1.741 19.703,0.785C23.535,-0.172 27.534,-0.243 31.398,0.577C35.261,1.397 38.887,3.087 42,5.517C45.113,7.947 47.632,11.055 49.364,14.604C51.097,18.153 51.998,22.051 52,26ZM48,26C47.999,22.625 47.222,19.296 45.728,16.27C44.235,13.244 42.065,10.602 39.387,8.548C36.709,6.495 33.595,5.085 30.284,4.428C26.974,3.77 23.557,3.883 20.298,4.758C17.039,5.633 14.024,7.245 11.488,9.472C8.952,11.698 6.961,14.477 5.671,17.596C4.381,20.714 3.826,24.087 4.048,27.455C4.27,30.822 5.264,34.093 6.953,37.015C7.094,37.26 7.182,37.533 7.211,37.815C7.239,38.097 7.207,38.381 7.118,38.65L4,48L13.35,44.883C13.554,44.813 13.767,44.778 13.983,44.778C14.334,44.778 14.679,44.871 14.983,45.048C18.327,46.983 22.122,48.003 25.986,48.005C29.85,48.008 33.646,46.992 36.993,45.062C40.34,43.131 43.12,40.352 45.052,37.006C46.984,33.66 48.001,29.864 48,26Z" fill="#65A30D"/>
</svg>
