<svg width="30" height="34" viewBox="0 0 30 34" fill="none" xmlns="http://www.w3.org/2000/svg" xmlns:xlink="http://www.w3.org/1999/xlink">
<path d="M2.333,26C1.333,26 0.667,26.667 0.667,27.667L0.667,31C0.667,32 1.333,32.667 2.333,32.667C3.333,32.667 4,32 4,31L4,27.667C4,26.667 3.333,26 2.333,26ZM10.667,19.333C9.667,19.333 9,20 9,21L9,31C9,32 9.667,32.667 10.667,32.667C11.667,32.667 12.333,32 12.333,31L12.333,21C12.333,20 11.667,19.333 10.667,19.333ZM27.333,-0.667C26.333,-0.667 25.667,0 25.667,1L25.667,31C25.667,32 26.333,32.667 27.333,32.667C28.333,32.667 29,32 29,31L29,1C29,0 28.333,-0.667 27.333,-0.667ZM19,11C18,11 17.333,11.667 17.333,12.667L17.333,31C17.333,32 18,32.667 19,32.667C20,32.667 20.667,32 20.667,31L20.667,12.667C20.667,11.667 20,11 19,11Z" fill="#545454"/>
</svg>
