<svg width="70" height="68" viewBox="0 0 70 68" fill="none" xmlns="http://www.w3.org/2000/svg" xmlns:xlink="http://www.w3.org/1999/xlink">
<path d="M68.333,33.333C68.333,51.743 53.037,66.667 34.167,66.667C28.7,66.667 23.534,65.413 18.956,63.187C17.746,62.577 16.35,62.419 15.03,62.743L7.424,64.73C6.672,64.926 5.879,64.925 5.127,64.728C4.374,64.531 3.688,64.144 3.138,63.606C2.587,63.069 2.191,62.399 1.989,61.665C1.787,60.931 1.787,60.158 1.989,59.423L4.021,52.003C4.352,50.716 4.189,49.355 3.564,48.177C1.212,43.566 -0.008,38.484 0,33.333C0,14.923 15.296,0 34.167,0C53.037,0 68.333,14.923 68.333,33.333ZM18.792,30.36C18.792,34.923 23.298,39.71 27.432,43.14C30.244,45.473 31.652,46.643 34.167,46.643C36.681,46.643 38.089,45.477 40.901,43.14C45.035,39.707 49.542,34.923 49.542,30.36C49.542,21.437 41.085,18.107 34.167,25C27.248,18.107 18.792,21.437 18.792,30.36Z" clip-rule="evenodd" fill-rule="evenodd" fill="#378B45"/>
</svg>
