<svg width="40" height="40" viewBox="0 0 40 40" fill="none" xmlns="http://www.w3.org/2000/svg" xmlns:xlink="http://www.w3.org/1999/xlink">
<path d="M28.561,14.439C28.701,14.578 28.811,14.743 28.887,14.926C28.962,15.108 29.001,15.303 29.001,15.5C29.001,15.697 28.962,15.892 28.887,16.074C28.811,16.257 28.701,16.422 28.561,16.561L18.061,27.061C17.922,27.201 17.757,27.311 17.574,27.387C17.392,27.462 17.197,27.501 17,27.501C16.803,27.501 16.608,27.462 16.426,27.387C16.244,27.311 16.078,27.201 15.939,27.061L11.439,22.561C11.157,22.28 10.999,21.898 10.999,21.5C10.999,21.102 11.157,20.72 11.439,20.439C11.72,20.157 12.102,19.999 12.5,19.999C12.898,19.999 13.28,20.157 13.561,20.439L17,23.879L26.439,14.439C26.578,14.299 26.744,14.189 26.926,14.113C27.108,14.038 27.303,13.999 27.5,13.999C27.697,13.999 27.892,14.038 28.074,14.113C28.257,14.189 28.422,14.299 28.561,14.439ZM39.5,20C39.5,23.857 38.356,27.627 36.214,30.834C34.071,34.04 31.025,36.54 27.462,38.016C23.899,39.492 19.978,39.878 16.196,39.125C12.413,38.373 8.939,36.516 6.211,33.789C3.484,31.061 1.627,27.587 0.875,23.804C0.122,20.022 0.508,16.101 1.984,12.538C3.46,8.975 5.96,5.929 9.166,3.786C12.373,1.644 16.143,0.5 20,0.5C25.17,0.505 30.127,2.562 33.783,6.217C37.438,9.873 39.495,14.83 39.5,20ZM36.5,20C36.5,16.737 35.532,13.547 33.719,10.833C31.906,8.12 29.329,6.005 26.314,4.756C23.299,3.507 19.982,3.18 16.781,3.817C13.58,4.454 10.64,6.025 8.333,8.333C6.025,10.64 4.454,13.58 3.817,16.781C3.18,19.982 3.507,23.299 4.756,26.314C6.005,29.329 8.12,31.906 10.833,33.719C13.547,35.532 16.737,36.5 20,36.5C24.375,36.495 28.569,34.755 31.662,31.662C34.755,28.569 36.495,24.375 36.5,20Z" fill="#65A30D"/>
</svg>
