<svg width="34" height="34" viewBox="0 0 34 34" fill="none" xmlns="http://www.w3.org/2000/svg" xmlns:xlink="http://www.w3.org/1999/xlink">
<path d="M31.679,28.921L24.328,21.57C26.098,19.214 27.053,16.347 27.05,13.4C27.05,5.873 20.927,-0.25 13.4,-0.25C5.873,-0.25 -0.25,5.873 -0.25,13.4C-0.25,20.927 5.873,27.05 13.4,27.05C16.347,27.053 19.214,26.098 21.57,24.328L28.921,31.679C29.293,32.012 29.779,32.189 30.277,32.175C30.776,32.161 31.251,31.957 31.604,31.604C31.957,31.251 32.161,30.776 32.175,30.277C32.189,29.779 32.012,29.293 31.679,28.921ZM3.65,13.4C3.65,11.472 4.222,9.587 5.293,7.983C6.365,6.38 7.887,5.13 9.669,4.392C11.45,3.654 13.411,3.461 15.302,3.837C17.193,4.214 18.931,5.142 20.294,6.506C21.658,7.869 22.586,9.607 22.963,11.498C23.339,13.389 23.146,15.35 22.408,17.131C21.67,18.913 20.42,20.435 18.817,21.507C17.213,22.578 15.328,23.15 13.4,23.15C10.815,23.147 8.337,22.119 6.509,20.291C4.681,18.463 3.653,15.985 3.65,13.4Z" fill="#FFFFFF"/>
</svg>
