<svg width="34" height="34" viewBox="0 0 34 34" fill="none" xmlns="http://www.w3.org/2000/svg" xmlns:xlink="http://www.w3.org/1999/xlink">
<path d="M15.333,-0.667C13.123,-0.667 11.004,0.211 9.441,1.774C7.878,3.337 7,5.457 7,7.667C7,9.877 7.878,11.997 9.441,13.559C11.004,15.122 13.123,16 15.333,16C17.544,16 19.663,15.122 21.226,13.559C22.789,11.997 23.667,9.877 23.667,7.667C23.667,5.457 22.789,3.337 21.226,1.774C19.663,0.211 17.544,-0.667 15.333,-0.667ZM15.333,17.667C11.342,17.667 7.708,18.823 5.037,20.452C3.703,21.268 2.563,22.227 1.74,23.268C0.93,24.295 0.333,25.522 0.333,26.833C0.333,28.242 1.018,29.352 2.005,30.143C2.938,30.893 4.17,31.39 5.478,31.737C8.108,32.432 11.618,32.667 15.333,32.667C15.717,32.667 16.1,32.663 16.475,32.658C16.754,32.655 17.028,32.581 17.271,32.444C17.514,32.306 17.719,32.11 17.867,31.873C18.014,31.637 18.1,31.366 18.116,31.088C18.132,30.809 18.078,30.531 17.958,30.278C17.325,28.941 16.998,27.48 17,26C17,23.913 17.638,21.98 18.728,20.378C18.891,20.14 18.988,19.864 19.012,19.577C19.035,19.291 18.984,19.002 18.863,18.741C18.743,18.48 18.556,18.254 18.322,18.086C18.088,17.919 17.815,17.814 17.528,17.783C16.812,17.707 16.078,17.667 15.333,17.667ZM33.18,22.78C33.484,22.466 33.652,22.045 33.648,21.608C33.644,21.171 33.469,20.753 33.16,20.444C32.851,20.135 32.433,19.959 31.996,19.956C31.559,19.952 31.138,20.12 30.823,20.423L25.52,25.727L23.163,23.37C22.849,23.066 22.428,22.898 21.991,22.902C21.554,22.906 21.136,23.081 20.827,23.39C20.518,23.699 20.343,24.117 20.339,24.554C20.335,24.991 20.503,25.412 20.807,25.727L24.223,29.143C24.394,29.314 24.596,29.449 24.818,29.541C25.041,29.633 25.279,29.681 25.52,29.681C25.761,29.681 25.999,29.633 26.222,29.541C26.444,29.449 26.646,29.314 26.817,29.143L33.18,22.78Z" clip-rule="evenodd" fill-rule="evenodd" fill="#FFFFFF"/>
</svg>
