<svg width="48" height="48" viewBox="0 0 48 48" fill="none" xmlns="http://www.w3.org/2000/svg" xmlns:xlink="http://www.w3.org/1999/xlink">
<path d="M13.333,10.667C13.333,7.838 14.457,5.125 16.458,3.124C18.458,1.124 21.171,0 24,0C26.829,0 29.542,1.124 31.542,3.124C33.543,5.125 34.667,7.838 34.667,10.667C34.667,13.496 33.543,16.209 31.542,18.209C29.542,20.21 26.829,21.333 24,21.333C21.171,21.333 18.458,20.21 16.458,18.209C14.457,16.209 13.333,13.496 13.333,10.667ZM13.333,26.667C9.797,26.667 6.406,28.071 3.905,30.572C1.405,33.072 0,36.464 0,40C0,42.122 0.843,44.157 2.343,45.657C3.843,47.157 5.878,48 8,48L40,48C42.122,48 44.157,47.157 45.657,45.657C47.157,44.157 48,42.122 48,40C48,36.464 46.595,33.072 44.095,30.572C41.594,28.071 38.203,26.667 34.667,26.667L13.333,26.667Z" clip-rule="evenodd" fill-rule="evenodd" fill="#FFFFFF"/>
</svg>
