<svg width="34" height="46" viewBox="0 0 34 46" fill="none" xmlns="http://www.w3.org/2000/svg" xmlns:xlink="http://www.w3.org/1999/xlink">
<path d="M32.46,20.157C32.403,19.917 32.288,19.694 32.124,19.509C31.96,19.324 31.754,19.182 31.522,19.096L20.72,15.044L23.469,1.295C23.531,0.975 23.488,0.644 23.346,0.352C23.203,0.059 22.969,-0.18 22.68,-0.328C22.39,-0.476 22.06,-0.526 21.739,-0.47C21.418,-0.414 21.125,-0.255 20.902,-0.018L-0.098,22.482C-0.268,22.662 -0.392,22.881 -0.457,23.12C-0.522,23.359 -0.527,23.611 -0.471,23.852C-0.416,24.093 -0.301,24.317 -0.138,24.504C0.026,24.69 0.233,24.833 0.465,24.92L11.27,28.972L8.529,42.706C8.467,43.025 8.51,43.356 8.653,43.649C8.795,43.942 9.029,44.18 9.319,44.328C9.608,44.476 9.938,44.526 10.259,44.47C10.58,44.415 10.873,44.256 11.096,44.018L32.096,21.518C32.263,21.339 32.384,21.121 32.448,20.883C32.511,20.646 32.515,20.396 32.46,20.157ZM12.506,38.125L14.469,28.304C14.539,27.956 14.484,27.594 14.312,27.283C14.14,26.972 13.864,26.732 13.532,26.605L3.624,22.883L19.49,5.885L17.529,15.706C17.459,16.054 17.514,16.416 17.686,16.727C17.858,17.038 18.134,17.278 18.467,17.405L28.367,21.117L12.506,38.125Z" fill="#064E3B"/>
</svg>
