<svg width="36" height="36" viewBox="0 0 36 36" fill="none" xmlns="http://www.w3.org/2000/svg" xmlns:xlink="http://www.w3.org/1999/xlink">
<path d="M0.857,18C0.857,8.533 8.533,0.857 18,0.857C27.467,0.857 35.143,8.533 35.143,18C35.143,27.467 27.467,35.143 18,35.143C15.191,35.147 12.425,34.458 9.947,33.137L3.133,35.076C2.827,35.162 2.503,35.166 2.195,35.086C1.888,35.006 1.607,34.845 1.382,34.621C1.157,34.396 0.996,34.115 0.916,33.807C0.836,33.499 0.84,33.176 0.927,32.87L2.864,26.056C1.542,23.576 0.853,20.809 0.857,18ZM11.571,14.786C11.571,15.377 12.051,15.857 12.643,15.857L23.357,15.857C23.641,15.857 23.914,15.744 24.115,15.543C24.316,15.342 24.428,15.07 24.428,14.786C24.428,14.501 24.316,14.229 24.115,14.028C23.914,13.827 23.641,13.714 23.357,13.714L12.643,13.714C12.359,13.714 12.086,13.827 11.885,14.028C11.684,14.229 11.571,14.501 11.571,14.786ZM12.643,20.143C12.359,20.143 12.086,20.256 11.885,20.456C11.684,20.657 11.571,20.93 11.571,21.214C11.571,21.498 11.684,21.771 11.885,21.972C12.086,22.173 12.359,22.286 12.643,22.286L19.071,22.286C19.355,22.286 19.628,22.173 19.829,21.972C20.03,21.771 20.143,21.498 20.143,21.214C20.143,20.93 20.03,20.657 19.829,20.456C19.628,20.256 19.355,20.143 19.071,20.143L12.643,20.143Z" fill="#FFFFFF"/>
</svg>
