<svg width="32" height="32" viewBox="0 0 32 32" fill="none" xmlns="http://www.w3.org/2000/svg" xmlns:xlink="http://www.w3.org/1999/xlink">
<path d="M32,16C32,24.837 24.837,32 16,32C13.44,32 11.021,31.398 8.877,30.33C8.31,30.037 7.657,29.961 7.038,30.117L3.477,31.07C3.124,31.164 2.753,31.164 2.401,31.069C2.049,30.975 1.727,30.789 1.469,30.531C1.211,30.273 1.026,29.952 0.931,29.599C0.837,29.247 0.837,28.876 0.931,28.523L1.883,24.962C2.038,24.344 1.962,23.69 1.669,23.125C0.567,20.911 -0.004,18.472 0,16C0,7.163 7.163,0 16,0C24.837,0 32,7.163 32,16ZM8.8,14.573C8.8,16.763 10.91,19.061 12.846,20.707C14.163,21.827 14.822,22.389 16,22.389C17.178,22.389 17.837,21.829 19.154,20.707C21.09,19.059 23.2,16.763 23.2,14.573C23.2,10.29 19.24,8.691 16,12C12.76,8.691 8.8,10.29 8.8,14.573Z" clip-rule="evenodd" fill-rule="evenodd" fill="#378B45"/>
</svg>
