<svg width="32" height="32" viewBox="0 0 32 32" fill="none" xmlns="http://www.w3.org/2000/svg" xmlns:xlink="http://www.w3.org/1999/xlink">
<path d="M32,14.4C32,13.551 31.694,12.737 31.148,12.137C30.602,11.537 29.862,11.2 29.091,11.2L19.898,11.2L21.295,3.888C21.324,3.728 21.338,3.552 21.338,3.376C21.338,2.72 21.091,2.112 20.698,1.68L19.156,0L9.585,10.528C9.047,11.12 8.727,11.92 8.727,12.8L8.727,28.8C8.727,29.649 9.034,30.463 9.579,31.063C10.125,31.663 10.865,32 11.636,32L24.727,32C25.935,32 26.967,31.2 27.404,30.048L31.796,18.768C31.927,18.4 32,18.016 32,17.6L32,14.4ZM0,32L5.818,32L5.818,12.8L0,12.8L0,32Z" fill="#378B45"/>
</svg>
