<svg width="32" height="28" viewBox="0 0 32 28" fill="none" xmlns="http://www.w3.org/2000/svg" xmlns:xlink="http://www.w3.org/1999/xlink">
<path d="M0,10C0,9.47 0.211,8.961 0.586,8.586C0.961,8.211 1.47,8 2,8L22.616,8C23.146,8 23.655,8.211 24.03,8.586C24.405,8.961 24.616,9.47 24.616,10C24.616,10.53 24.405,11.039 24.03,11.414C23.655,11.789 23.146,12 22.616,12L2,12C1.47,12 0.961,11.789 0.586,11.414C0.211,11.039 0,10.53 0,10ZM0,2C0,1.47 0.211,0.961 0.586,0.586C0.961,0.211 1.47,0 2,0L30,0C30.53,0 31.039,0.211 31.414,0.586C31.789,0.961 32,1.47 32,2C32,2.53 31.789,3.039 31.414,3.414C31.039,3.789 30.53,4 30,4L2,4C1.47,4 0.961,3.789 0.586,3.414C0.211,3.039 0,2.53 0,2ZM0,18C0,17.47 0.211,16.961 0.586,16.586C0.961,16.211 1.47,16 2,16L30,16C30.53,16 31.039,16.211 31.414,16.586C31.789,16.961 32,17.47 32,18C32,18.53 31.789,19.039 31.414,19.414C31.039,19.789 30.53,20 30,20L2,20C1.47,20 0.961,19.789 0.586,19.414C0.211,19.039 0,18.53 0,18ZM0,26C0,25.47 0.211,24.961 0.586,24.586C0.961,24.211 1.47,24 2,24L22.616,24C23.146,24 23.655,24.211 24.03,24.586C24.405,24.961 24.616,25.47 24.616,26C24.616,26.53 24.405,27.039 24.03,27.414C23.655,27.789 23.146,28 22.616,28L2,28C1.47,28 0.961,27.789 0.586,27.414C0.211,27.039 0,26.53 0,26Z" clip-rule="evenodd" fill-rule="evenodd" fill="#FFFFFF"/>
</svg>
