<svg width="26" height="26" viewBox="0 0 26 26" fill="none" xmlns="http://www.w3.org/2000/svg" xmlns:xlink="http://www.w3.org/1999/xlink">
<path d="M23.666,10.333L5.05,10.333L13.183,2.2C13.833,1.55 13.833,0.483 13.183,-0.167C13.029,-0.321 12.846,-0.444 12.644,-0.528C12.442,-0.611 12.226,-0.654 12.008,-0.654C11.79,-0.654 11.574,-0.611 11.372,-0.528C11.17,-0.444 10.987,-0.321 10.833,-0.167L-0.15,10.816C-0.305,10.971 -0.427,11.154 -0.511,11.355C-0.595,11.557 -0.638,11.773 -0.638,11.991C-0.638,12.21 -0.595,12.426 -0.511,12.627C-0.427,12.829 -0.305,13.012 -0.15,13.166L10.833,24.15C10.987,24.304 11.171,24.427 11.372,24.51C11.574,24.594 11.79,24.637 12.008,24.637C12.226,24.637 12.442,24.594 12.644,24.51C12.846,24.427 13.029,24.304 13.183,24.15C13.337,23.996 13.46,23.812 13.543,23.611C13.627,23.409 13.67,23.193 13.67,22.975C13.67,22.757 13.627,22.541 13.543,22.339C13.46,22.137 13.337,21.954 13.183,21.8L5.05,13.666L23.666,13.666C24.583,13.666 25.333,12.916 25.333,12C25.333,11.083 24.583,10.333 23.666,10.333Z" fill="#000000"/>
</svg>
