<svg width="28" height="26" viewBox="0 0 28 26" fill="none" xmlns="http://www.w3.org/2000/svg" xmlns:xlink="http://www.w3.org/1999/xlink">
<path d="M24.97,11.351L6.354,11.351L14.487,3.218C15.137,2.568 15.137,1.501 14.487,0.851C14.333,0.696 14.15,0.574 13.948,0.49C13.747,0.407 13.53,0.364 13.312,0.364C13.094,0.364 12.878,0.407 12.676,0.49C12.475,0.574 12.291,0.696 12.137,0.851L1.154,11.834C0.999,11.988 0.877,12.172 0.793,12.373C0.71,12.575 0.666,12.791 0.666,13.009C0.666,13.228 0.71,13.444 0.793,13.645C0.877,13.847 0.999,14.03 1.154,14.184L12.137,25.168C12.292,25.322 12.475,25.444 12.676,25.528C12.878,25.611 13.094,25.654 13.312,25.654C13.53,25.654 13.747,25.611 13.948,25.528C14.15,25.444 14.333,25.322 14.487,25.168C14.642,25.013 14.764,24.83 14.847,24.629C14.931,24.427 14.974,24.211 14.974,23.993C14.974,23.774 14.931,23.558 14.847,23.357C14.764,23.155 14.642,22.972 14.487,22.818L6.354,14.684L24.97,14.684C25.887,14.684 26.637,13.934 26.637,13.018C26.637,12.101 25.887,11.351 24.97,11.351Z" transform="rotate(-360 13.652 13.009)" fill="#FFFFFF"/>
</svg>
