<svg width="32" height="32" viewBox="0 0 32 32" fill="none" xmlns="http://www.w3.org/2000/svg" xmlns:xlink="http://www.w3.org/1999/xlink">
<path d="M12.666,-0.25C12.114,-0.25 11.573,-0.094 11.107,0.201C10.64,0.496 10.266,0.918 10.03,1.417C8.89,1.427 8.003,1.478 7.21,1.788C6.263,2.159 5.439,2.788 4.833,3.605C4.221,4.427 3.933,5.483 3.54,6.935L3.461,7.218L2.606,12.158C2.298,12.372 2.03,12.625 1.796,12.923C0.295,14.845 1.01,17.707 2.44,23.425C3.348,27.063 3.803,28.882 5.16,29.942C6.516,31 8.391,31 12.141,31L19.858,31C23.608,31 25.483,31 26.84,29.942C28.197,28.882 28.65,27.063 29.56,23.425C30.99,17.705 31.705,14.847 30.203,12.923C29.974,12.628 29.7,12.369 29.392,12.157L28.537,7.22L28.46,6.937C28.065,5.483 27.777,4.427 27.167,3.603C26.56,2.787 25.737,2.158 24.79,1.788C23.997,1.478 23.108,1.427 21.97,1.418C21.733,0.919 21.36,0.497 20.893,0.202C20.427,-0.093 19.886,-0.25 19.333,-0.25L12.666,-0.25ZM26.697,11.243L26.093,7.763C25.622,6.03 25.45,5.485 25.16,5.095C24.834,4.655 24.39,4.316 23.88,4.117C23.513,3.973 23.07,3.932 21.967,3.92C21.73,4.418 21.357,4.838 20.89,5.133C20.424,5.427 19.884,5.583 19.333,5.583L12.666,5.583C12.115,5.583 11.575,5.427 11.109,5.133C10.643,4.838 10.27,4.418 10.033,3.92C8.928,3.932 8.486,3.973 8.12,4.117C7.61,4.316 7.166,4.655 6.84,5.095C6.55,5.485 6.378,6.028 5.906,7.762L5.303,11.243C6.966,11 9.183,11 12.141,11L19.858,11C22.817,11 25.033,11 26.697,11.243ZM9.333,16.417C9.665,16.417 9.983,16.548 10.217,16.783C10.451,17.017 10.583,17.335 10.583,17.667L10.583,24.333C10.583,24.665 10.451,24.983 10.217,25.217C9.983,25.452 9.665,25.583 9.333,25.583C9.002,25.583 8.684,25.452 8.449,25.217C8.215,24.983 8.083,24.665 8.083,24.333L8.083,17.667C8.083,17.335 8.215,17.017 8.449,16.783C8.684,16.548 9.002,16.417 9.333,16.417ZM23.917,17.667C23.917,17.335 23.785,17.017 23.55,16.783C23.316,16.548 22.998,16.417 22.667,16.417C22.335,16.417 22.017,16.548 21.783,16.783C21.548,17.017 21.417,17.335 21.417,17.667L21.417,24.333C21.417,24.665 21.548,24.983 21.783,25.217C22.017,25.452 22.335,25.583 22.667,25.583C22.998,25.583 23.316,25.452 23.55,25.217C23.785,24.983 23.917,24.665 23.917,24.333L23.917,17.667ZM16,16.417C16.331,16.417 16.649,16.548 16.884,16.783C17.118,17.017 17.25,17.335 17.25,17.667L17.25,24.333C17.25,24.665 17.118,24.983 16.884,25.217C16.649,25.452 16.331,25.583 16,25.583C15.668,25.583 15.35,25.452 15.116,25.217C14.882,24.983 14.75,24.665 14.75,24.333L14.75,17.667C14.75,17.335 14.882,17.017 15.116,16.783C15.35,16.548 15.668,16.417 16,16.417Z" clip-rule="evenodd" fill-rule="evenodd" fill="#000000"/>
</svg>
