<svg width="36" height="30" viewBox="0 0 36 30" fill="none" xmlns="http://www.w3.org/2000/svg" xmlns:xlink="http://www.w3.org/1999/xlink">
<path d="M34.561,16.061L21.061,29.561C20.78,29.843 20.398,30.001 20,30.001C19.602,30.001 19.22,29.843 18.939,29.561C18.657,29.28 18.499,28.898 18.499,28.5C18.499,28.102 18.657,27.72 18.939,27.439L29.879,16.5L0.5,16.5C0.102,16.5 -0.279,16.342 -0.561,16.061C-0.842,15.779 -1,15.398 -1,15C-1,14.602 -0.842,14.221 -0.561,13.939C-0.279,13.658 0.102,13.5 0.5,13.5L29.879,13.5L18.939,2.561C18.657,2.28 18.499,1.898 18.499,1.5C18.499,1.102 18.657,0.72 18.939,0.439C19.22,0.157 19.602,-0.001 20,-0.001C20.398,-0.001 20.78,0.157 21.061,0.439L34.561,13.939C34.701,14.078 34.811,14.243 34.887,14.425C34.962,14.608 35.001,14.803 35.001,15C35.001,15.197 34.962,15.392 34.887,15.574C34.811,15.756 34.701,15.922 34.561,16.061Z" fill="#064E3B"/>
</svg>
