<svg width="78" height="70" viewBox="0 0 78 70" fill="none" xmlns="http://www.w3.org/2000/svg" xmlns:xlink="http://www.w3.org/1999/xlink">
<path d="M77.2,31.5C77.2,29.643 76.463,27.863 75.15,26.55C73.837,25.237 72.057,24.5 70.2,24.5L48.08,24.5L51.44,8.505C51.51,8.155 51.545,7.77 51.545,7.385C51.545,5.95 50.95,4.62 50.005,3.675L46.295,0L23.265,23.03C21.97,24.325 21.2,26.075 21.2,28L21.2,63C21.2,64.857 21.938,66.637 23.25,67.95C24.563,69.262 26.344,70 28.2,70L59.7,70C62.605,70 65.09,68.25 66.14,65.73L76.71,41.055C77.025,40.25 77.2,39.41 77.2,38.5L77.2,31.5ZM0.2,70L14.2,70L14.2,28L0.2,28L0.2,70Z" fill="#378B45"/>
</svg>
