<svg width="54" height="54" viewBox="0 0 54 54" fill="none" xmlns="http://www.w3.org/2000/svg" xmlns:xlink="http://www.w3.org/1999/xlink">
<path d="M36.667,22C36.667,22.531 36.456,23.039 36.081,23.414C35.706,23.789 35.197,24 34.667,24L18.667,24C18.136,24 17.627,23.789 17.252,23.414C16.877,23.039 16.667,22.531 16.667,22C16.667,21.47 16.877,20.961 17.252,20.586C17.627,20.211 18.136,20 18.667,20L34.667,20C35.197,20 35.706,20.211 36.081,20.586C36.456,20.961 36.667,21.47 36.667,22ZM34.667,28L18.667,28C18.136,28 17.627,28.211 17.252,28.586C16.877,28.961 16.667,29.47 16.667,30C16.667,30.531 16.877,31.039 17.252,31.414C17.627,31.789 18.136,32 18.667,32L34.667,32C35.197,32 35.706,31.789 36.081,31.414C36.456,31.039 36.667,30.531 36.667,30C36.667,29.47 36.456,28.961 36.081,28.586C35.706,28.211 35.197,28 34.667,28ZM52.667,26C52.668,30.489 51.506,34.902 49.296,38.809C47.086,42.715 43.901,45.984 40.053,48.295C36.205,50.606 31.824,51.881 27.337,51.997C22.85,52.113 18.409,51.065 14.447,48.955L5.934,51.793C5.229,52.028 4.473,52.062 3.75,51.891C3.027,51.72 2.365,51.352 1.84,50.827C1.315,50.301 0.946,49.64 0.775,48.917C0.605,48.194 0.639,47.437 0.874,46.733L3.712,38.22C1.857,34.733 0.821,30.87 0.682,26.923C0.544,22.976 1.307,19.049 2.912,15.44C4.518,11.832 6.924,8.637 9.949,6.098C12.974,3.558 16.538,1.741 20.37,0.785C24.202,-0.172 28.201,-0.243 32.065,0.577C35.928,1.397 39.554,3.087 42.667,5.517C45.78,7.947 48.298,11.055 50.031,14.604C51.764,18.153 52.665,22.051 52.667,26ZM48.667,26C48.666,22.625 47.888,19.296 46.395,16.27C44.901,13.244 42.732,10.602 40.054,8.548C37.376,6.495 34.261,5.085 30.951,4.428C27.641,3.77 24.224,3.883 20.965,4.758C17.705,5.633 14.691,7.245 12.154,9.472C9.618,11.698 7.628,14.477 6.338,17.596C5.048,20.714 4.492,24.087 4.714,27.455C4.936,30.822 5.93,34.093 7.619,37.015C7.761,37.26 7.849,37.533 7.877,37.815C7.906,38.097 7.874,38.381 7.784,38.65L4.667,48L14.017,44.883C14.22,44.813 14.434,44.778 14.649,44.778C15,44.778 15.345,44.871 15.649,45.048C18.994,46.983 22.789,48.003 26.653,48.005C30.517,48.008 34.313,46.992 37.66,45.062C41.007,43.131 43.786,40.352 45.719,37.006C47.651,33.66 48.667,29.864 48.667,26Z" fill="#65A30D"/>
</svg>
