<svg width="34" height="46" viewBox="0 0 34 46" fill="none" xmlns="http://www.w3.org/2000/svg" xmlns:xlink="http://www.w3.org/1999/xlink">
<path d="M32.46,21.157C32.403,20.917 32.288,20.694 32.124,20.509C31.96,20.324 31.754,20.182 31.522,20.096L20.72,16.044L23.469,2.294C23.531,1.975 23.488,1.644 23.346,1.351C23.203,1.059 22.969,0.82 22.68,0.672C22.39,0.524 22.06,0.474 21.739,0.53C21.418,0.586 21.125,0.744 20.902,0.982L-0.098,23.482C-0.268,23.662 -0.392,23.881 -0.457,24.12C-0.522,24.359 -0.527,24.61 -0.471,24.852C-0.416,25.093 -0.301,25.317 -0.138,25.503C0.026,25.69 0.233,25.833 0.465,25.919L11.27,29.971L8.529,43.706C8.467,44.025 8.51,44.356 8.653,44.649C8.795,44.942 9.029,45.18 9.319,45.328C9.608,45.476 9.938,45.526 10.259,45.47C10.58,45.414 10.873,45.256 11.096,45.018L32.096,22.518C32.263,22.338 32.384,22.12 32.448,21.883C32.511,21.646 32.515,21.396 32.46,21.157ZM12.506,39.125L14.469,29.304C14.539,28.956 14.484,28.594 14.312,28.282C14.14,27.971 13.864,27.731 13.532,27.605L3.624,23.883L19.49,6.884L17.529,16.706C17.459,17.054 17.514,17.416 17.686,17.727C17.858,18.038 18.134,18.278 18.467,18.404L28.367,22.117L12.506,39.125Z" fill="#064E3B"/>
</svg>
