<svg width="26" height="26" viewBox="0 0 26 26" fill="none" xmlns="http://www.w3.org/2000/svg" xmlns:xlink="http://www.w3.org/1999/xlink">
<path d="M23.667,10.333L5.05,10.333L13.184,2.2C13.834,1.55 13.834,0.483 13.184,-0.167C13.029,-0.321 12.846,-0.444 12.645,-0.528C12.443,-0.611 12.227,-0.654 12.009,-0.654C11.79,-0.654 11.574,-0.611 11.372,-0.528C11.171,-0.444 10.988,-0.321 10.834,-0.167L-0.15,10.816C-0.304,10.971 -0.427,11.154 -0.511,11.355C-0.594,11.557 -0.637,11.773 -0.637,11.991C-0.637,12.21 -0.594,12.426 -0.511,12.627C-0.427,12.829 -0.304,13.012 -0.15,13.166L10.834,24.15C10.988,24.304 11.171,24.427 11.373,24.51C11.574,24.594 11.79,24.637 12.009,24.637C12.227,24.637 12.443,24.594 12.644,24.51C12.846,24.427 13.029,24.304 13.184,24.15C13.338,23.996 13.46,23.812 13.544,23.611C13.627,23.409 13.67,23.193 13.67,22.975C13.67,22.757 13.627,22.541 13.544,22.339C13.46,22.137 13.338,21.954 13.184,21.8L5.05,13.666L23.667,13.666C24.584,13.666 25.334,12.916 25.334,12C25.334,11.083 24.584,10.333 23.667,10.333Z" fill="#000000"/>
</svg>
