<svg width="32" height="40" viewBox="0 0 32 40" fill="none" xmlns="http://www.w3.org/2000/svg" xmlns:xlink="http://www.w3.org/1999/xlink">
<path d="M16,40C24.837,40 32,35 32,26.25C32,22.5 30.667,16.25 25.333,11.25C26,15 22,16.25 22,16.25C24,10 18.667,1.25 10.667,0C11.619,5 12,10 5.333,15C2,17.5 0,21.823 0,26.25C0,35 7.163,40 16,40ZM16,37.5C11.581,37.5 8,35 8,30.625C8,28.75 8.667,25.625 11.333,23.125C11,25 13.333,26.25 13.333,26.25C12.333,23.125 14.667,18.125 18.667,17.5C18.189,20 18,22.5 21.333,25C23,26.25 24,28.41 24,30.625C24,35 20.419,37.5 16,37.5Z" fill="#378B45"/>
</svg>
