<svg width="56" height="56" viewBox="0 0 56 56" fill="none" xmlns="http://www.w3.org/2000/svg" xmlns:xlink="http://www.w3.org/1999/xlink">
<path d="M0.571,28C0.571,12.852 12.852,0.571 28,0.571C43.147,0.571 55.428,12.852 55.428,28C55.428,43.147 43.147,55.428 28,55.428C23.506,55.435 19.081,54.332 15.115,52.219L4.212,55.321C3.723,55.46 3.205,55.466 2.713,55.338C2.22,55.21 1.771,54.953 1.411,54.593C1.052,54.233 0.794,53.784 0.666,53.291C0.538,52.799 0.544,52.281 0.683,51.792L3.783,40.889C1.668,36.922 0.565,32.495 0.571,28ZM17.714,22.857C17.714,23.803 18.482,24.571 19.428,24.571L36.571,24.571C37.026,24.571 37.462,24.391 37.783,24.069C38.105,23.748 38.286,23.312 38.286,22.857C38.286,22.402 38.105,21.966 37.783,21.645C37.462,21.323 37.026,21.143 36.571,21.143L19.428,21.143C18.974,21.143 18.538,21.323 18.216,21.645C17.895,21.966 17.714,22.402 17.714,22.857ZM19.428,31.428C18.974,31.428 18.538,31.609 18.216,31.93C17.895,32.252 17.714,32.688 17.714,33.143C17.714,33.597 17.895,34.033 18.216,34.355C18.538,34.676 18.974,34.857 19.428,34.857L29.714,34.857C30.169,34.857 30.605,34.676 30.926,34.355C31.248,34.033 31.428,33.597 31.428,33.143C31.428,32.688 31.248,32.252 30.926,31.93C30.605,31.609 30.169,31.428 29.714,31.428L19.428,31.428Z" fill="#FFFFFF"/>
</svg>
