<svg width="42" height="36" viewBox="0 0 42 36" fill="none" xmlns="http://www.w3.org/2000/svg" xmlns:xlink="http://www.w3.org/1999/xlink">
<path d="M40.062,6.561L34.455,12.167C33.323,25.296 22.251,35.5 9,35.5C6.278,35.5 4.033,35.069 2.329,34.217C0.955,33.529 0.392,32.792 0.252,32.582C0.126,32.394 0.045,32.18 0.014,31.956C-0.017,31.733 0.003,31.505 0.072,31.289C0.141,31.074 0.259,30.878 0.415,30.714C0.571,30.551 0.762,30.425 0.973,30.345C1.022,30.327 5.518,28.6 8.374,25.313C6.79,24.011 5.408,22.482 4.272,20.775C1.947,17.324 -0.656,11.327 0.147,2.367C0.172,2.082 0.278,1.81 0.453,1.584C0.627,1.358 0.863,1.186 1.132,1.089C1.401,0.992 1.692,0.974 1.971,1.037C2.25,1.1 2.505,1.241 2.706,1.444C2.772,1.51 8.946,7.651 16.495,9.642L16.495,8.5C16.492,7.302 16.729,6.117 17.191,5.012C17.653,3.908 18.332,2.907 19.187,2.069C20.018,1.239 21.006,0.585 22.093,0.144C23.181,-0.298 24.346,-0.516 25.519,-0.5C27.093,-0.485 28.637,-0.062 29.999,0.727C31.362,1.515 32.497,2.643 33.295,4L39,4C39.297,4 39.587,4.087 39.834,4.252C40.081,4.417 40.274,4.651 40.387,4.926C40.501,5.2 40.531,5.502 40.473,5.793C40.415,6.084 40.272,6.351 40.062,6.561Z" fill="#064E3B"/>
</svg>
