<svg width="44" height="42" viewBox="0 0 44 42" fill="none" xmlns="http://www.w3.org/2000/svg" xmlns:xlink="http://www.w3.org/1999/xlink">
<path d="M39.553,18.361L9.766,18.361L22.78,5.348C23.82,4.308 23.82,2.601 22.78,1.561C22.533,1.314 22.24,1.118 21.917,0.984C21.595,0.85 21.249,0.781 20.9,0.781C20.55,0.781 20.205,0.85 19.882,0.984C19.559,1.118 19.266,1.314 19.02,1.561L1.446,19.135C1.199,19.381 1.003,19.674 0.869,19.997C0.735,20.319 0.667,20.665 0.667,21.015C0.667,21.364 0.735,21.71 0.869,22.032C1.003,22.355 1.199,22.648 1.446,22.895L19.02,40.468C19.267,40.715 19.56,40.911 19.882,41.044C20.205,41.178 20.551,41.247 20.9,41.247C21.249,41.247 21.595,41.178 21.917,41.044C22.24,40.911 22.533,40.715 22.78,40.468C23.027,40.221 23.223,39.928 23.356,39.605C23.49,39.283 23.559,38.937 23.559,38.588C23.559,38.239 23.49,37.893 23.356,37.57C23.223,37.248 23.027,36.955 22.78,36.708L9.766,23.695L39.553,23.695C41.02,23.695 42.22,22.495 42.22,21.028C42.22,19.561 41.02,18.361 39.553,18.361Z" transform="rotate(-360 21.443 21.014)" fill="#064500"/>
</svg>
