<svg width="56" height="48" viewBox="0 0 56 48" fill="none" xmlns="http://www.w3.org/2000/svg" xmlns:xlink="http://www.w3.org/1999/xlink">
<path d="M39.5,0C34.338,0 29.818,2.22 27,5.972C24.182,2.22 19.663,0 14.5,0C10.391,0.005 6.451,1.639 3.545,4.545C0.639,7.451 -0.995,11.391 -1,15.5C-1,33 24.948,47.165 26.052,47.75C26.344,47.907 26.669,47.989 27,47.989C27.331,47.989 27.656,47.907 27.947,47.75C29.052,47.165 55,33 55,15.5C54.995,11.391 53.361,7.451 50.455,4.545C47.549,1.639 43.609,0.005 39.5,0ZM27,43.7C22.435,41.04 3,28.923 3,15.5C3.004,12.451 4.217,9.528 6.373,7.373C8.528,5.217 11.451,4.004 14.5,4C19.362,4 23.445,6.59 25.15,10.75C25.301,11.117 25.557,11.431 25.886,11.651C26.216,11.872 26.603,11.99 27,11.99C27.397,11.99 27.784,11.872 28.114,11.651C28.443,11.431 28.699,11.117 28.85,10.75C30.555,6.583 34.638,4 39.5,4C42.549,4.004 45.472,5.217 47.627,7.373C49.783,9.528 50.996,12.451 51,15.5C51,28.903 31.56,41.038 27,43.7Z" fill="#064E3B"/>
</svg>
