<svg width="74" height="76" viewBox="0 0 74 76" fill="none" xmlns="http://www.w3.org/2000/svg" xmlns:xlink="http://www.w3.org/1999/xlink">
<path d="M58.433,7.2L60.467,20.067L72.167,26.033L66.267,37.7L72.2,49.367L60.4,55.333L58.367,68.2L45.4,66.167L36.167,75.367L26.9,66.033L14.033,68.167L11.967,55.2L0.333,49.267L6.267,37.6L0.367,26.033L12.067,20L14.1,7.233L27,9.367L36.267,0L45.5,9.233L58.433,7.2ZM27.933,21.033C26.607,21.033 25.336,21.56 24.398,22.498C23.46,23.435 22.933,24.707 22.933,26.033C22.933,27.359 23.46,28.631 24.398,29.569C25.336,30.507 26.607,31.033 27.933,31.033C29.259,31.033 30.531,30.507 31.469,29.569C32.407,28.631 32.933,27.359 32.933,26.033C32.933,24.707 32.407,23.435 31.469,22.498C30.531,21.56 29.259,21.033 27.933,21.033ZM44.6,44.367C43.274,44.367 42.002,44.893 41.065,45.831C40.127,46.769 39.6,48.041 39.6,49.367C39.6,50.693 40.127,51.965 41.065,52.902C42.002,53.84 43.274,54.367 44.6,54.367C45.926,54.367 47.198,53.84 48.136,52.902C49.073,51.965 49.6,50.693 49.6,49.367C49.6,48.041 49.073,46.769 48.136,45.831C47.198,44.893 45.926,44.367 44.6,44.367ZM24.3,54.367L52.933,25.733L48.233,21.033L19.6,49.667L24.3,54.367Z" fill="#378B45"/>
</svg>
