<svg width="54" height="54" viewBox="0 0 54 54" fill="none" xmlns="http://www.w3.org/2000/svg" xmlns:xlink="http://www.w3.org/1999/xlink">
<path d="M27.885,0.115C27.385,-0.385 26.707,-0.666 26,-0.666C25.293,-0.666 24.615,-0.385 24.115,0.115L5.448,18.781L0.115,24.115C-0.14,24.361 -0.343,24.655 -0.483,24.98C-0.623,25.306 -0.696,25.656 -0.699,26.01C-0.702,26.364 -0.635,26.715 -0.501,27.043C-0.367,27.37 -0.169,27.668 0.082,27.918C0.332,28.169 0.63,28.367 0.957,28.501C1.285,28.635 1.636,28.703 1.99,28.699C2.344,28.696 2.694,28.623 3.02,28.483C3.345,28.343 3.639,28.14 3.885,27.885L4.667,27.104L4.667,44.667C4.667,46.788 5.509,48.823 7.01,50.324C8.51,51.824 10.545,52.667 12.667,52.667L39.333,52.667C41.455,52.667 43.49,51.824 44.99,50.324C46.491,48.823 47.333,46.788 47.333,44.667L47.333,27.104L48.115,27.885C48.618,28.371 49.291,28.64 49.99,28.634C50.69,28.628 51.358,28.347 51.853,27.853C52.347,27.359 52.628,26.69 52.634,25.99C52.64,25.291 52.371,24.618 51.885,24.115L27.885,0.115Z" clip-rule="evenodd" fill-rule="evenodd" fill="#FFFFFF"/>
</svg>
