<svg width="26" height="26" viewBox="0 0 26 26" fill="none" xmlns="http://www.w3.org/2000/svg" xmlns:xlink="http://www.w3.org/1999/xlink">
<path d="M23.666,11.333L5.05,11.333L13.183,3.2C13.833,2.55 13.833,1.483 13.183,0.833C13.029,0.679 12.846,0.556 12.644,0.472C12.442,0.389 12.226,0.346 12.008,0.346C11.79,0.346 11.574,0.389 11.372,0.472C11.17,0.556 10.987,0.679 10.833,0.833L-0.15,11.816C-0.305,11.971 -0.427,12.154 -0.511,12.355C-0.595,12.557 -0.638,12.773 -0.638,12.991C-0.638,13.21 -0.595,13.426 -0.511,13.627C-0.427,13.829 -0.305,14.012 -0.15,14.166L10.833,25.15C10.987,25.304 11.171,25.427 11.372,25.51C11.574,25.594 11.79,25.637 12.008,25.637C12.226,25.637 12.442,25.594 12.644,25.51C12.846,25.427 13.029,25.304 13.183,25.15C13.337,24.996 13.46,24.812 13.543,24.611C13.627,24.409 13.67,24.193 13.67,23.975C13.67,23.757 13.627,23.541 13.543,23.339C13.46,23.137 13.337,22.954 13.183,22.8L5.05,14.666L23.666,14.666C24.583,14.666 25.333,13.916 25.333,13C25.333,12.083 24.583,11.333 23.666,11.333Z" fill="#000000"/>
</svg>
