<svg width="28" height="28" viewBox="0 0 28 28" fill="none" xmlns="http://www.w3.org/2000/svg" xmlns:xlink="http://www.w3.org/1999/xlink">
<path d="M16,12L16,2C16,1.47 15.789,0.961 15.414,0.586C15.039,0.211 14.53,0 14,0C13.47,0 12.961,0.211 12.586,0.586C12.211,0.961 12,1.47 12,2L12,12L2,12C1.47,12 0.961,12.211 0.586,12.586C0.211,12.961 0,13.47 0,14C0,14.53 0.211,15.039 0.586,15.414C0.961,15.789 1.47,16 2,16L12,16L12,26C12,26.53 12.211,27.039 12.586,27.414C12.961,27.789 13.47,28 14,28C14.53,28 15.039,27.789 15.414,27.414C15.789,27.039 16,26.53 16,26L16,16L26,16C26.53,16 27.039,15.789 27.414,15.414C27.789,15.039 28,14.53 28,14C28,13.47 27.789,12.961 27.414,12.586C27.039,12.211 26.53,12 26,12L16,12Z" transform="rotate(360 14 14)" fill="#064500"/>
</svg>
