<svg width="56" height="48" viewBox="0 0 56 48" fill="none" xmlns="http://www.w3.org/2000/svg" xmlns:xlink="http://www.w3.org/1999/xlink">
<path d="M40.5,0C35.338,0 30.818,2.22 28,5.972C25.182,2.22 20.663,0 15.5,0C11.391,0.005 7.451,1.639 4.545,4.545C1.639,7.451 0.005,11.391 0,15.5C0,33 25.948,47.165 27.052,47.75C27.344,47.907 27.669,47.989 28,47.989C28.331,47.989 28.656,47.907 28.947,47.75C30.052,47.165 56,33 56,15.5C55.995,11.391 54.361,7.451 51.455,4.545C48.549,1.639 44.609,0.005 40.5,0ZM28,43.7C23.435,41.04 4,28.923 4,15.5C4.004,12.451 5.217,9.528 7.373,7.373C9.528,5.217 12.451,4.004 15.5,4C20.362,4 24.445,6.59 26.15,10.75C26.301,11.117 26.557,11.431 26.886,11.651C27.216,11.872 27.603,11.99 28,11.99C28.397,11.99 28.784,11.872 29.114,11.651C29.443,11.431 29.699,11.117 29.85,10.75C31.555,6.583 35.638,4 40.5,4C43.549,4.004 46.472,5.217 48.627,7.373C50.783,9.528 51.996,12.451 52,15.5C52,28.903 32.56,41.038 28,43.7Z" fill="#65A30D"/>
</svg>
