<svg width="30" height="20" viewBox="0 0 30 20" fill="none" xmlns="http://www.w3.org/2000/svg" xmlns:xlink="http://www.w3.org/1999/xlink">
<path d="M22.333,0C23.609,0 24.836,0.487 25.764,1.362C26.692,2.237 27.25,3.434 27.325,4.707L27.333,5L27.333,5.143L27.42,5.175C27.848,5.344 28.221,5.628 28.497,5.996C28.774,6.364 28.944,6.8 28.988,7.258L29,7.5L29,12.5C29,13.001 28.849,13.491 28.568,13.906C28.286,14.32 27.886,14.641 27.42,14.825L27.333,14.855L27.333,15C27.333,16.275 26.846,17.503 25.971,18.43C25.096,19.358 23.9,19.917 22.627,19.992L22.333,20L4,20C2.725,20 1.497,19.513 0.57,18.638C-0.358,17.763 -0.917,16.566 -0.992,15.293L-1,15L-1,5C-1,3.725 -0.513,2.497 0.362,1.57C1.237,0.642 2.434,0.083 3.707,0.008L4,0L22.333,0ZM5.667,5C5.225,5 4.801,5.176 4.488,5.488C4.176,5.801 4,6.225 4,6.667L4,13.333L4.012,13.528C4.062,13.95 4.271,14.337 4.597,14.61C4.923,14.882 5.34,15.02 5.764,14.995C6.188,14.97 6.587,14.784 6.879,14.476C7.17,14.167 7.333,13.758 7.333,13.333L7.333,6.667L7.322,6.472C7.274,6.066 7.079,5.692 6.774,5.421C6.469,5.15 6.075,5 5.667,5ZM10.667,5C10.225,5 9.801,5.176 9.488,5.488C9.176,5.801 9,6.225 9,6.667L9,13.333L9.012,13.528C9.062,13.95 9.271,14.337 9.597,14.61C9.923,14.882 10.34,15.02 10.764,14.995C11.188,14.97 11.587,14.784 11.879,14.476C12.17,14.167 12.333,13.758 12.333,13.333L12.333,6.667L12.322,6.472C12.274,6.066 12.079,5.692 11.774,5.421C11.469,5.15 11.075,5 10.667,5ZM15.667,5C15.225,5 14.801,5.176 14.488,5.488C14.176,5.801 14,6.225 14,6.667L14,13.333L14.012,13.528C14.062,13.95 14.271,14.337 14.597,14.61C14.923,14.882 15.34,15.02 15.764,14.995C16.188,14.97 16.587,14.784 16.879,14.476C17.17,14.167 17.333,13.758 17.333,13.333L17.333,6.667L17.322,6.472C17.274,6.066 17.079,5.692 16.774,5.421C16.469,5.15 16.075,5 15.667,5Z" fill="#000000"/>
</svg>
