<svg width="38" height="28" viewBox="0 0 38 28" fill="none" xmlns="http://www.w3.org/2000/svg" xmlns:xlink="http://www.w3.org/1999/xlink">
<path d="M33.556,10.444C24.964,1.852 11.036,1.852 2.444,10.444C2.067,10.808 1.562,11.01 1.037,11.005C0.513,11.001 0.011,10.79 -0.36,10.42C-0.73,10.049 -0.941,9.547 -0.945,9.023C-0.95,8.498 -0.748,7.993 -0.384,7.616C9.768,-2.538 26.232,-2.538 36.384,7.616C36.748,7.993 36.95,8.498 36.945,9.023C36.941,9.547 36.73,10.049 36.36,10.42C35.989,10.79 35.487,11.001 34.963,11.005C34.438,11.01 33.933,10.808 33.556,10.444ZM27.9,16.1C26.6,14.8 25.057,13.768 23.358,13.065C21.659,12.361 19.839,11.999 18,11.999C16.161,11.999 14.341,12.361 12.642,13.065C10.944,13.768 9.4,14.8 8.1,16.1C7.723,16.464 7.218,16.666 6.693,16.661C6.169,16.657 5.667,16.446 5.296,16.076C4.926,15.705 4.715,15.203 4.711,14.679C4.706,14.154 4.908,13.649 5.272,13.272C6.944,11.601 8.928,10.275 11.112,9.37C13.296,8.465 15.636,8 18,8C20.364,8 22.705,8.465 24.888,9.37C27.072,10.275 29.057,11.601 30.728,13.272C31.092,13.649 31.294,14.154 31.289,14.679C31.285,15.203 31.074,15.705 30.704,16.076C30.333,16.446 29.831,16.657 29.307,16.661C28.782,16.666 28.277,16.464 27.9,16.1ZM22.24,21.76C21.115,20.635 19.589,20.003 17.998,20.003C16.407,20.003 14.881,20.635 13.756,21.76C13.381,22.135 12.872,22.346 12.341,22.346C11.81,22.346 11.301,22.135 10.926,21.76C10.551,21.385 10.34,20.876 10.34,20.345C10.34,19.814 10.551,19.305 10.926,18.93C11.855,18.001 12.957,17.264 14.171,16.762C15.384,16.259 16.685,16 17.998,16C19.311,16 20.612,16.259 21.825,16.762C23.039,17.264 24.141,18.001 25.07,18.93C25.445,19.305 25.656,19.814 25.656,20.345C25.656,20.876 25.445,21.385 25.07,21.76C24.695,22.135 24.186,22.346 23.655,22.346C23.124,22.346 22.615,22.135 22.24,21.76ZM16,26C16,25.469 16.211,24.961 16.586,24.586C16.961,24.211 17.47,24 18,24L18.02,24C18.551,24 19.059,24.211 19.434,24.586C19.809,24.961 20.02,25.469 20.02,26C20.02,26.53 19.809,27.039 19.434,27.414C19.059,27.789 18.551,28 18.02,28L18,28C17.47,28 16.961,27.789 16.586,27.414C16.211,27.039 16,26.53 16,26Z" clip-rule="evenodd" fill-rule="evenodd" fill="#545454"/>
</svg>
