<svg width="38" height="36" viewBox="0 0 38 36" fill="none" xmlns="http://www.w3.org/2000/svg" xmlns:xlink="http://www.w3.org/1999/xlink">
<path d="M34.333,15.667L8.27,15.667L19.657,4.28C20.567,3.37 20.567,1.877 19.657,0.967C19.441,0.75 19.184,0.579 18.902,0.462C18.62,0.344 18.317,0.284 18.012,0.284C17.706,0.284 17.403,0.344 17.121,0.462C16.839,0.579 16.583,0.75 16.367,0.967L0.99,16.343C0.774,16.559 0.602,16.815 0.485,17.098C0.368,17.38 0.308,17.683 0.308,17.988C0.308,18.294 0.368,18.596 0.485,18.879C0.602,19.161 0.774,19.417 0.99,19.633L16.367,35.01C16.583,35.226 16.839,35.397 17.121,35.514C17.404,35.631 17.706,35.691 18.012,35.691C18.317,35.691 18.62,35.631 18.902,35.514C19.184,35.397 19.441,35.226 19.657,35.01C19.873,34.794 20.044,34.537 20.161,34.255C20.278,33.973 20.338,33.67 20.338,33.365C20.338,33.059 20.278,32.757 20.161,32.475C20.044,32.192 19.873,31.936 19.657,31.72L8.27,20.333L34.333,20.333C35.617,20.333 36.667,19.283 36.667,18C36.667,16.717 35.617,15.667 34.333,15.667Z" fill="#FFFFFF"/>
</svg>
