<svg width="32" height="20" viewBox="0 0 32 20" fill="none" xmlns="http://www.w3.org/2000/svg" xmlns:xlink="http://www.w3.org/1999/xlink">
<path d="M24.333,0C25.609,0 26.836,0.487 27.764,1.362C28.692,2.237 29.25,3.434 29.325,4.707L29.333,5L29.333,5.143L29.42,5.175C29.848,5.344 30.221,5.628 30.497,5.996C30.774,6.364 30.944,6.8 30.988,7.258L31,7.5L31,12.5C31,13.001 30.849,13.491 30.568,13.906C30.286,14.32 29.886,14.641 29.42,14.825L29.333,14.855L29.333,15C29.333,16.275 28.846,17.503 27.971,18.43C27.096,19.358 25.9,19.917 24.627,19.992L24.333,20L6,20C4.725,20 3.497,19.513 2.57,18.638C1.642,17.763 1.083,16.566 1.008,15.293L1,15L1,5C1,3.725 1.487,2.497 2.362,1.57C3.237,0.642 4.434,0.083 5.707,0.008L6,0L24.333,0ZM7.667,5C7.225,5 6.801,5.176 6.488,5.488C6.176,5.801 6,6.225 6,6.667L6,13.333L6.012,13.528C6.062,13.95 6.271,14.337 6.597,14.61C6.923,14.882 7.34,15.02 7.764,14.995C8.188,14.97 8.587,14.784 8.879,14.476C9.17,14.167 9.333,13.758 9.333,13.333L9.333,6.667L9.322,6.472C9.274,6.066 9.079,5.692 8.774,5.421C8.469,5.15 8.075,5 7.667,5ZM12.667,5C12.225,5 11.801,5.176 11.488,5.488C11.176,5.801 11,6.225 11,6.667L11,13.333L11.012,13.528C11.062,13.95 11.271,14.337 11.597,14.61C11.923,14.882 12.34,15.02 12.764,14.995C13.188,14.97 13.587,14.784 13.879,14.476C14.17,14.167 14.333,13.758 14.333,13.333L14.333,6.667L14.322,6.472C14.274,6.066 14.079,5.692 13.774,5.421C13.469,5.15 13.075,5 12.667,5ZM17.667,5C17.225,5 16.801,5.176 16.488,5.488C16.176,5.801 16,6.225 16,6.667L16,13.333L16.012,13.528C16.062,13.95 16.271,14.337 16.597,14.61C16.923,14.882 17.34,15.02 17.764,14.995C18.188,14.97 18.587,14.784 18.879,14.476C19.17,14.167 19.333,13.758 19.333,13.333L19.333,6.667L19.322,6.472C19.274,6.066 19.079,5.692 18.774,5.421C18.469,5.15 18.075,5 17.667,5Z" fill="#545454"/>
</svg>
