<svg width="26" height="30" viewBox="0 0 26 30" fill="none" xmlns="http://www.w3.org/2000/svg" xmlns:xlink="http://www.w3.org/1999/xlink">
<path d="M22.872,0.043C15.646,-0.764 8.353,-0.764 1.128,0.043C0.72,0.089 0.332,0.243 0.004,0.49C-0.324,0.738 -0.58,1.069 -0.736,1.448C-0.892,1.828 -0.943,2.243 -0.883,2.65C-0.823,3.056 -0.655,3.439 -0.397,3.758L5.885,11.523C7.684,13.748 8.666,16.522 8.667,19.383L8.667,24.62C8.666,24.816 8.713,25.01 8.801,25.185C8.89,25.36 9.018,25.512 9.177,25.628L13.795,29.015C13.939,29.12 14.11,29.184 14.288,29.199C14.466,29.213 14.644,29.178 14.804,29.097C14.963,29.017 15.097,28.893 15.19,28.741C15.284,28.589 15.333,28.413 15.333,28.235L15.333,19.383C15.334,16.521 16.316,13.746 18.117,11.521L24.397,3.755C24.655,3.436 24.822,3.053 24.882,2.647C24.941,2.241 24.89,1.826 24.734,1.446C24.578,1.067 24.323,0.736 23.995,0.489C23.668,0.242 23.28,0.089 22.872,0.043Z" fill="#000000"/>
</svg>
