<svg width="80" height="80" viewBox="0 0 80 80" fill="none" xmlns="http://www.w3.org/2000/svg" xmlns:xlink="http://www.w3.org/1999/xlink">
<path d="M79.2,12.5C79.2,15.313 76.966,17.906 73.2,20C68.653,22.516 61.872,24.297 54.091,24.828C53.513,24.547 52.935,24.281 52.325,24.047C46.169,21.469 37.981,20 29.2,20C27.903,20 26.638,20.031 25.372,20.094L25.2,20C21.435,17.906 19.2,15.313 19.2,12.5C19.2,5.594 32.638,0 49.2,0C65.763,0 79.2,5.594 79.2,12.5ZM24.31,25.172C25.903,25.063 27.544,25 29.2,25C38.919,25 47.544,26.922 53.028,29.906C56.903,32.016 59.2,34.641 59.2,37.5C59.2,38.125 59.091,38.734 58.872,39.328C58.153,41.391 56.216,43.281 53.403,44.875C53.388,44.891 53.356,44.891 53.341,44.906C53.294,44.938 53.247,44.953 53.2,44.984C47.731,48.016 39.013,49.984 29.2,49.984C19.888,49.984 11.56,48.219 6.044,45.438C5.747,45.297 5.466,45.141 5.185,44.984C1.435,42.906 -0.8,40.312 -0.8,37.5C-0.8,32.062 7.544,27.422 19.2,25.719C20.841,25.484 22.544,25.297 24.31,25.172ZM64.2,37.5C64.2,34.078 62.544,31.266 60.435,29.156C64.856,28.469 68.903,27.375 72.341,25.953C74.888,24.891 77.263,23.578 79.2,21.969L79.2,27.5C79.2,30.516 76.622,33.297 72.356,35.453C70.075,36.609 67.294,37.594 64.169,38.344C64.185,38.062 64.2,37.797 64.2,37.516L64.2,37.5ZM59.2,52.5C59.2,55.312 56.966,57.906 53.2,60C52.919,60.156 52.638,60.297 52.341,60.453C46.841,63.234 38.513,65 29.2,65C19.388,65 10.669,63.031 5.2,60C1.435,57.906 -0.8,55.312 -0.8,52.5L-0.8,46.969C1.153,48.578 3.513,49.891 6.06,50.953C12.231,53.531 20.419,55 29.2,55C37.981,55 46.169,53.531 52.341,50.953C53.56,50.453 54.731,49.875 55.841,49.25C56.794,48.719 57.685,48.125 58.528,47.5C58.763,47.328 58.981,47.141 59.2,46.969L59.2,52.5ZM64.2,52.5L64.2,43.453C67.169,42.797 69.903,41.969 72.341,40.953C74.888,39.891 77.263,38.578 79.2,36.969L79.2,42.5C79.2,44.141 78.419,45.781 76.872,47.328C74.325,49.875 69.841,51.969 64.169,53.328C64.185,53.062 64.2,52.781 64.2,52.5ZM29.2,70C37.981,70 46.169,68.531 52.341,65.953C54.888,64.891 57.263,63.578 59.2,61.969L59.2,67.5C59.2,74.406 45.763,80 29.2,80C12.638,80 -0.8,74.406 -0.8,67.5L-0.8,61.969C1.153,63.578 3.513,64.891 6.06,65.953C12.231,68.531 20.419,70 29.2,70Z" fill="#378B45"/>
</svg>
