<svg width="60" height="60" viewBox="0 0 60 60" fill="none" xmlns="http://www.w3.org/2000/svg" xmlns:xlink="http://www.w3.org/1999/xlink">
<path d="M2,0C1.47,0 0.961,0.211 0.586,0.586C0.211,0.961 0,1.47 0,2C0,2.53 0.211,3.039 0.586,3.414C0.961,3.789 1.47,4 2,4L6.44,4L8.044,10.428L14.036,42.368C14.122,42.826 14.365,43.24 14.724,43.538C15.082,43.836 15.534,44 16,44L20,44C17.878,44 15.843,44.843 14.343,46.343C12.843,47.843 12,49.878 12,52C12,54.122 12.843,56.157 14.343,57.657C15.843,59.157 17.878,60 20,60C22.122,60 24.157,59.157 25.657,57.657C27.157,56.157 28,54.122 28,52C28,49.878 27.157,47.843 25.657,46.343C24.157,44.843 22.122,44 20,44L48,44C45.878,44 43.843,44.843 42.343,46.343C40.843,47.843 40,49.878 40,52C40,54.122 40.843,56.157 42.343,57.657C43.843,59.157 45.878,60 48,60C50.122,60 52.157,59.157 53.657,57.657C55.157,56.157 56,54.122 56,52C56,49.878 55.157,47.843 53.657,46.343C52.157,44.843 50.122,44 48,44L52,44C52.466,44 52.918,43.836 53.276,43.538C53.635,43.24 53.878,42.826 53.964,42.368L59.964,10.368C60.018,10.079 60.008,9.782 59.934,9.498C59.86,9.214 59.725,8.949 59.538,8.723C59.35,8.497 59.115,8.315 58.849,8.19C58.584,8.065 58.294,8 58,8L11.56,8L9.94,1.516C9.832,1.083 9.582,0.699 9.231,0.424C8.879,0.149 8.446,0 8,0L2,0ZM24,52C24,53.061 23.579,54.078 22.828,54.828C22.078,55.579 21.061,56 20,56C18.939,56 17.922,55.579 17.172,54.828C16.421,54.078 16,53.061 16,52C16,50.939 16.421,49.922 17.172,49.172C17.922,48.421 18.939,48 20,48C21.061,48 22.078,48.421 22.828,49.172C23.579,49.922 24,50.939 24,52ZM52,52C52,53.061 51.579,54.078 50.828,54.828C50.078,55.579 49.061,56 48,56C46.939,56 45.922,55.579 45.172,54.828C44.421,54.078 44,53.061 44,52C44,50.939 44.421,49.922 45.172,49.172C45.922,48.421 46.939,48 48,48C49.061,48 50.078,48.421 50.828,49.172C51.579,49.922 52,50.939 52,52ZM36,18L36,24L42,24C42.53,24 43.039,24.211 43.414,24.586C43.789,24.961 44,25.47 44,26C44,26.53 43.789,27.039 43.414,27.414C43.039,27.789 42.53,28 42,28L36,28L36,34C36,34.53 35.789,35.039 35.414,35.414C35.039,35.789 34.53,36 34,36C33.47,36 32.961,35.789 32.586,35.414C32.211,35.039 32,34.53 32,34L32,28L26,28C25.47,28 24.961,27.789 24.586,27.414C24.211,27.039 24,26.53 24,26C24,25.47 24.211,24.961 24.586,24.586C24.961,24.211 25.47,24 26,24L32,24L32,18C32,17.47 32.211,16.961 32.586,16.586C32.961,16.211 33.47,16 34,16C34.53,16 35.039,16.211 35.414,16.586C35.789,16.961 36,17.47 36,18Z" fill="#FFFFFF"/>
</svg>
