<svg width="40" height="40" viewBox="0 0 40 40" fill="none" xmlns="http://www.w3.org/2000/svg" xmlns:xlink="http://www.w3.org/1999/xlink">
<path d="M36.5,0.5L3.5,0.5C2.704,0.5 1.941,0.816 1.379,1.379C0.816,1.941 0.5,2.704 0.5,3.5L0.5,36.5C0.5,37.296 0.816,38.059 1.379,38.621C1.941,39.184 2.704,39.5 3.5,39.5L36.5,39.5C37.296,39.5 38.059,39.184 38.621,38.621C39.184,38.059 39.5,37.296 39.5,36.5L39.5,3.5C39.5,2.704 39.184,1.941 38.621,1.379C38.059,0.816 37.296,0.5 36.5,0.5ZM14,29C14,29.398 13.842,29.779 13.561,30.061C13.279,30.342 12.898,30.5 12.5,30.5C12.102,30.5 11.721,30.342 11.439,30.061C11.158,29.779 11,29.398 11,29L11,17C11,16.602 11.158,16.221 11.439,15.939C11.721,15.658 12.102,15.5 12.5,15.5C12.898,15.5 13.279,15.658 13.561,15.939C13.842,16.221 14,16.602 14,17L14,29ZM12.5,14C12.055,14 11.62,13.868 11.25,13.621C10.88,13.374 10.592,13.022 10.421,12.611C10.251,12.2 10.206,11.747 10.293,11.311C10.38,10.875 10.594,10.474 10.909,10.159C11.224,9.844 11.625,9.63 12.061,9.543C12.497,9.456 12.95,9.501 13.361,9.671C13.772,9.842 14.124,10.13 14.371,10.5C14.618,10.87 14.75,11.305 14.75,11.75C14.75,12.347 14.513,12.919 14.091,13.341C13.669,13.763 13.097,14 12.5,14ZM30.5,29C30.5,29.398 30.342,29.779 30.061,30.061C29.779,30.342 29.398,30.5 29,30.5C28.602,30.5 28.221,30.342 27.939,30.061C27.658,29.779 27.5,29.398 27.5,29L27.5,22.25C27.5,21.255 27.105,20.302 26.402,19.598C25.698,18.895 24.745,18.5 23.75,18.5C22.755,18.5 21.802,18.895 21.098,19.598C20.395,20.302 20,21.255 20,22.25L20,29C20,29.398 19.842,29.779 19.561,30.061C19.279,30.342 18.898,30.5 18.5,30.5C18.102,30.5 17.721,30.342 17.439,30.061C17.158,29.779 17,29.398 17,29L17,17C17.002,16.633 17.139,16.279 17.384,16.005C17.63,15.732 17.967,15.558 18.332,15.517C18.697,15.476 19.065,15.57 19.365,15.782C19.665,15.994 19.877,16.308 19.961,16.666C20.975,15.978 22.158,15.579 23.383,15.512C24.607,15.446 25.827,15.714 26.91,16.288C27.994,16.862 28.9,17.72 29.533,18.77C30.165,19.821 30.5,21.024 30.5,22.25L30.5,29Z" fill="#064E3B"/>
</svg>
