<svg width="52" height="54" viewBox="0 0 52 54" fill="none" xmlns="http://www.w3.org/2000/svg" xmlns:xlink="http://www.w3.org/1999/xlink">
<path d="M35.333,22C35.333,22.531 35.122,23.039 34.747,23.414C34.372,23.789 33.863,24 33.333,24L17.333,24C16.803,24 16.294,23.789 15.919,23.414C15.544,23.039 15.333,22.531 15.333,22C15.333,21.47 15.544,20.961 15.919,20.586C16.294,20.211 16.803,20 17.333,20L33.333,20C33.863,20 34.372,20.211 34.747,20.586C35.122,20.961 35.333,21.47 35.333,22ZM33.333,28L17.333,28C16.803,28 16.294,28.211 15.919,28.586C15.544,28.961 15.333,29.47 15.333,30C15.333,30.531 15.544,31.039 15.919,31.414C16.294,31.789 16.803,32 17.333,32L33.333,32C33.863,32 34.372,31.789 34.747,31.414C35.122,31.039 35.333,30.531 35.333,30C35.333,29.47 35.122,28.961 34.747,28.586C34.372,28.211 33.863,28 33.333,28ZM51.333,26C51.334,30.489 50.173,34.902 47.962,38.809C45.752,42.715 42.568,45.984 38.72,48.295C34.872,50.606 30.491,51.881 26.003,51.997C21.516,52.113 17.075,51.065 13.113,48.955L4.601,51.793C3.896,52.028 3.139,52.062 2.416,51.891C1.693,51.72 1.032,51.352 0.507,50.827C-0.019,50.301 -0.387,49.64 -0.558,48.917C-0.729,48.194 -0.695,47.437 -0.459,46.733L2.378,38.22C0.523,34.733 -0.512,30.87 -0.651,26.923C-0.789,22.976 -0.027,19.049 1.579,15.44C3.184,11.832 5.591,8.637 8.616,6.098C11.641,3.558 15.204,1.741 19.036,0.785C22.868,-0.172 26.867,-0.243 30.731,0.577C34.594,1.397 38.22,3.087 41.333,5.517C44.446,7.947 46.965,11.055 48.697,14.604C50.43,18.153 51.331,22.051 51.333,26ZM47.333,26C47.332,22.625 46.555,19.296 45.061,16.27C43.568,13.244 41.398,10.602 38.72,8.548C36.042,6.495 32.928,5.085 29.617,4.428C26.307,3.77 22.89,3.883 19.631,4.758C16.372,5.633 13.357,7.245 10.821,9.472C8.285,11.698 6.294,14.477 5.004,17.596C3.714,20.714 3.159,24.087 3.381,27.455C3.603,30.822 4.597,34.093 6.286,37.015C6.427,37.26 6.515,37.533 6.544,37.815C6.572,38.097 6.54,38.381 6.451,38.65L3.333,48L12.683,44.883C12.887,44.813 13.1,44.778 13.316,44.778C13.667,44.778 14.012,44.871 14.316,45.048C17.66,46.983 21.455,48.003 25.319,48.005C29.183,48.008 32.979,46.992 36.326,45.062C39.673,43.131 42.453,40.352 44.385,37.006C46.317,33.66 47.334,29.864 47.333,26Z" fill="#65A30D"/>
</svg>
